<svg xmlns="http://www.w3.org/2000/svg" viewBox="0 0 1202.16 357.09"><g id="Layer_2" data-name="Layer 2"><g id="Layer_1-2" data-name="Layer 1"><path d="M550.54,357.09c-3.92-.57-7.85-1.17-11.78-1.71-36.45-5-59.68-25.73-71-60.1-8.83-26.89-10.23-54.7-8.57-82.74,1.38-23.42,5.73-46.15,17.36-66.89C492,118.15,515.54,102.72,547,99.84c13.8-1.26,27.61-1,41.16,2.46,31.4,8.11,50.78,28.93,60,59a211.86,211.86,0,0,1-.11,126.56c-7.55,24.51-21.54,44.84-44.67,57.65A91.3,91.3,0,0,1,570.82,356c-1.78.23-3.53.73-5.29,1.1ZM611.12,232c-.9-12.41-1.32-24.87-2.8-37.2-2-16.23-5.76-31.84-15.81-45.53-14.63-19.95-45.37-19.39-59.42-7.38-11.77,10.08-18,23.21-21.68,37.79-6.46,25.29-6.41,51-3.77,76.68,1.74,16.93,5.37,33.38,15,48,12.72,19.4,39.67,25.16,58.88,12.27,12-8,17.94-20.24,22-33.44C608.54,266.52,609.88,249.29,611.12,232Z"/><path d="M0,270.33c1.53-9,2.66-18,4.66-26.9,7.75-34.24,24.85-63.84,46.15-91.29,10.84-14,22.85-26.85,37.39-37.1C103,104.63,119,98,137.59,99.57c15.35,1.3,24.3,9.76,26.19,25.06,2.37,19.12-2.39,36.76-12.2,52.89-19.64,32.3-48.07,54.63-82.3,69.94-7.42,3.31-15.1,6-22.63,9-3.53-7.4-2-11.44,4.67-14,19-7.31,37.37-15.89,53.37-28.73,13.81-11.1,24.84-24.14,27.58-42.38a54.15,54.15,0,0,0,.34-13.4c-1.52-15-10.2-23-25.2-24.71-19-2.15-31.68,7.68-42.2,21.55-15.71,20.72-22.71,44.85-26.4,70.09C35.87,245,36.51,265,44,284.22a56.84,56.84,0,0,0,5.27,10.15c7.73,12,19.19,15.74,31.35,8.37,13.42-8.15,25.73-18.11,39.06-27.67L98.93,252.66l68.21,3.62v69.28l-18.59-19.63c-9.07,8-17.65,16.09-26.73,23.56-14,11.57-28.75,22.15-47.16,25.89-2.58.53-5.15,1.14-7.72,1.71H56c-1.59-.38-3.17-.85-4.79-1.12-13.06-2.21-24-7.86-32.58-18.3C10.82,328.2,6,317.47,3.13,305.78,1.72,300,1,294.12,0,288.28Z"/><path d="M945.22,357.09c-2.6-.51-5.2-1-7.79-1.54-18.35-3.81-29.64-15.5-36.08-32.45-6-15.75-7.76-32.27-7.84-48.93-.21-42.21-.09-84.41-.1-126.61v-6.4c-5.54-.48-10.78-.91-16-1.43a18.13,18.13,0,0,1-4.89-.88c-3.59-1.4-8.94-.26-9.77-5.92-1.32-9.05.75-14.24,7.64-17.07,7.51-3.08,15.31-5.53,23.09-7.86,3.43-1,4.88-2.7,5-6.26.54-12.12,1.62-24.21,1.94-36.33.24-9.12,4.41-15.54,12-19.81A53.89,53.89,0,0,1,938.41,39v66.62H1005c-1.68,9.44-2.89,18.06-4.87,26.5-1,4.19-4.56,6.4-9,6.56q-23.44.83-46.89,1.61c-1.79.06-3.59,0-5.94,0-.3,5-.8,9.64-.81,14.22q-.15,56.82-.12,113.65c0,12.33,1.37,24.55,5.77,36.21,5.27,13.93,13.67,18.71,28.41,16.12A131.81,131.81,0,0,0,986,317.05c4.59-1.37,9-3.23,14.26-5.13a40.7,40.7,0,0,1,.82,5.29c.12,4.65-.12,9.31.11,14,.43,8.91-4.16,14.87-11.9,17.68-8.52,3.1-17.54,4.82-26.35,7.12-1.57.41-3.16.76-4.74,1.13Z"/><path d="M255.83,350.31v-15q-.15-161.28-.29-322.56c0-9.56.78-10.89,10.55-11.24C288.37.67,310.67.12,333,0a121.73,121.73,0,0,1,44.39,8.36c24,9.18,40.89,25.52,48.66,50,10.74,33.83,11.62,67.81-3.49,100.7-14.65,31.87-41.72,46.67-75.28,50.94-12.83,1.63-23.24-5.76-25.17-16.23-1.2-6.49.65-10,6.8-10.12,30.37-.8,46.47-23.26,52.19-47.94,4.6-19.86,5.34-39.86-.28-59.66-7-24.67-23.47-37.77-49.2-39.14-8.62-.46-17.29.11-25.93.19-3.47,0-5.31,1.5-4.89,5.18a20.7,20.7,0,0,1,0,2.49q.12,126.14.23,252.28c0,12.12.5,24.28-.35,36.34-.87,12.43-5.89,16.58-18.21,16.88C273.8,350.48,265.17,350.31,255.83,350.31Z"/><path d="M1201.94,325.15c0,5.45.63,10.68-.25,15.65-.5,2.84-2.93,6-5.4,7.71-14.2,9.74-29.71,8.59-42.63-2.72-3.23-2.83-6.37-5.77-9.72-8.82a6.33,6.33,0,0,0-1.6.93c-9.73,10.68-22.14,15.5-36.25,16.64-11.49.92-22.95,1.19-34.19-2-22.26-6.36-36.54-20.83-41.86-43.18-7-29.36-3-56.58,19.21-78.94,11.9-12,27.08-18.47,43.17-22.79a128.51,128.51,0,0,1,52.16-3.3c.41-1,1.13-1.85,1.1-2.71-.45-15.25-.27-30.56-1.75-45.72-1.15-11.81-6.78-16.84-18.8-17.28a98.71,98.71,0,0,0-27.07,2.83c-12,3-23.67,7.7-35.48,11.66-11.64,3.92-13.33,3.44-16.22-8.58-5.19-21.54-4.26-21.35,12.93-30.19,27.47-14.13,57-17.92,87.38-13.74,22.77,3.13,36.68,19,40.28,43.24,3.55,23.85,1.55,47.77,1.61,71.66.07,28.24-.45,56.49-.57,84.73a85.79,85.79,0,0,0,1.16,13.37C1190.23,320.58,1194.92,324.13,1201.94,325.15Zm-55.54-60.8-.53,0c0-8.47-.24-16.95.1-25.41.18-4.39-1.8-5.6-5.53-5.46-6.66.26-13.33.34-20,.9-13.77,1.17-26.94,5-36.48,15.27-14.85,16-15,35-8.13,54.56,2.92,8.35,9.42,13.38,18.11,14.64,16.71,2.42,32.23-1,45.42-11.84,2.5-2.05,4.33-6.05,4.69-9.35C1145.3,286.58,1145.69,275.45,1146.4,264.35Z"/><path d="M769,99.26c15.67.64,30.32,1.31,44,7.42.3.14.63.21.93.36,20.25,9.68,18.56,16.15,9.82,34.3-.53,1.1-3.06,2.08-4.39,1.8a223.33,223.33,0,0,1-22.74-5.48c-12.17-3.88-24.34-5.66-36.77-1.82-8.33,2.57-15.78,6.71-19.41,15.16-4.29,10-2.92,19.84,4.65,27.3,8.47,8.34,18.19,15.45,27.59,22.82,13.21,10.37,26.86,20.18,39.89,30.76,32.82,26.66,28.58,68.58,13.66,90.92-9.34,14-22.52,22.94-38.45,27.74-29.58,8.9-58.85,8.15-87.22-4.56-13.56-6.08-15.74-11.54-11-25.41,5-14.61,5.23-14.44,19.42-8.92,15.7,6.11,31.57,10.66,48.58,8.6,13.08-1.59,24.8-5.86,30.3-19.34,4.72-11.59,3.59-23-4.73-32.22-7.17-7.93-15.91-14.49-24.28-21.27-14.33-11.61-29.34-22.42-43.28-34.48s-23.27-27.41-24.07-46.51c-1.24-29.69,13.14-50.76,41.23-61.39C744.78,100.48,757.26,99.13,769,99.26Z"/><path d="M190.91,233.32v61.23c-6.28-6.48-16.61-9.84-15.2-21.9.79-6.7,0-13.58.21-20.38.11-3.26-1.08-4.37-4.23-4.45-8.48-.21-17-.38-25.4-1.12a14.76,14.76,0,0,1-7.66-3.48A71.33,71.33,0,0,1,126.54,230Z"/></g></g></svg>