<svg xmlns="http://www.w3.org/2000/svg" viewBox="0 0 648.39 911.81"><defs><style>.cls-1{fill:#fff;}</style></defs><g id="Layer_2" data-name="Layer 2"><g id="Layer_1-2" data-name="Layer 1"><path d="M117.54,206.91c10,8.33,21.09,8.06,32.35,5.87,19.26-3.73,36.41-12.59,52.62-23.18,43.81-28.61,79.86-65,107.43-109.53,8.7-14.07,15.86-28.91,19.47-45.21,1.66-7.52,2.75-15.18.48-22.71C328.64,8,326.42,4.2,324.52,0c6.38.49,13.28.51,20,1.65,11.34,1.93,22.55,4.62,33.83,6.9,2.72.55,4.2,2.14,5.28,4.6,3.72,8.54,3.79,17.48,2.57,26.39-3,22-12.31,41.66-23.46,60.47-28.55,48.17-66.3,88.1-110.49,122.11-20.92,16.1-43.19,30-67.9,39.66a114.43,114.43,0,0,1-32.2,7.94c-8,.66-15.74-.14-23-3.72a6,6,0,0,1-2.91-3.08,193.55,193.55,0,0,1-8.86-54.35A14.64,14.64,0,0,1,117.54,206.91Z"/><path d="M152.46,317.47c16.69,5.35,32.39,2.47,47.88-2.35,25.26-7.86,48.06-20.71,69.61-35.75,12.1-8.45,23.58-17.79,35.34-26.75.84-.64,1.6-1.41,2.69-2.4l-28.36-29.81,100.66,3.09c-.54,33.45-1.07,66.7-1.61,100.69L352,296.33c-3.22,2.63-6.27,5.15-9.36,7.63-23.45,18.84-48.19,35.66-75.62,48.25-13.46,6.17-27.28,11.44-42.07,13.18a118.8,118.8,0,0,1-20.92.19c-5.09-.3-9.57-2.55-13.63-6a212.2,212.2,0,0,1-36.84-40.23C153.3,318.92,153.05,318.45,152.46,317.47Z"/><path d="M31.44,441.67v5q.15,93.72.27,187.44a58.61,58.61,0,0,1-.63,9.65c-1.17,6.86-4.12,9.71-11,10.09-6.45.35-12.93.07-19.87.07V650.5Q.15,536.23,0,422c0-2.6.89-3.91,3.28-4.17,5.45-.59,10.91-1.34,16.38-1.52,15.83-.53,31.71-1.58,47.47,1,18.37,2.94,34.24,10.25,44.53,26.71,5.78,9.24,8.5,19.51,9.71,30.21,1.7,15.06,1.27,30-4.25,44.32-9,23.19-26.61,35.61-50.61,39.56a31.22,31.22,0,0,1-11.21-.63c-6.3-1.32-9.91-6.8-9.36-13.25.27-3.19,2.76-3.49,5.12-3.84,2.76-.41,5.62-.41,8.3-1.09a32.65,32.65,0,0,0,22.28-18.73c8.56-18.5,9.43-37.76,3-57-4.78-14.16-15.85-21.11-30.37-22.41-6.32-.57-12.72-.11-19.09,0A24.37,24.37,0,0,0,31.44,441.67Z"/><path d="M139.39,575.26c-.16-18,1.47-35.74,8.41-52.62,10.2-24.76,31.31-39,58.1-39.46,11-.17,21.77,1,31.92,5.45,17.13,7.55,26.81,21.43,32.14,38.78,5.66,18.42,6.22,37.33,4.77,56.36-1.05,13.77-4.07,27.08-10.52,39.38-12.06,23-31,34.77-57.16,34.81-13.62,0-26.64-2.32-38.25-9.86-13.61-8.84-20.68-22.15-24.86-37.33C140.75,599.15,139.81,587.24,139.39,575.26Zm104.2-5.36c-.65-8-1-16.14-2-24.14-1.16-9-3.47-17.77-8.45-25.57-11.21-17.57-35.83-18.85-48.17-2.07A57,57,0,0,0,176.27,536c-6,21-5.31,42.42-1.7,63.76,1.52,9,4.47,17.54,10.28,24.82,11.42,14.29,33.45,14.78,44.78.45a57.53,57.53,0,0,0,8.69-16.77C242.6,595.89,243.23,582.92,243.59,569.9Z"/><path d="M608.28,644.77a2.65,2.65,0,0,0-.6.35c-16.22,15.15-35.12,14.58-54.13,7.85-14.58-5.15-21.78-17.39-24.16-32.32-1.94-12.18-.84-24.11,4.73-35.33,6.7-13.47,18.15-21.33,31.88-26.25a88.28,88.28,0,0,1,41-4.67,17.81,17.81,0,0,0,2.19,0c.18-.2.44-.36.44-.51-.2-10.44.19-20.94-.83-31.31-.9-9.1-5.94-12.79-15.18-12.91-9.72-.13-19,2.31-28.1,5.47-5.18,1.8-10.24,4-15.44,5.71-4.53,1.5-5.53,1.15-7.06-3.27a85.69,85.69,0,0,1-3-12.82c-.57-3.15.84-5.48,3.61-7.3,9.15-6,19.25-9.54,29.83-11.93A103.78,103.78,0,0,1,609.81,484c15.22,2,25.12,11.89,27.85,28.09a122.9,122.9,0,0,1,1.86,20.25c0,28.92-.42,57.84-.59,86.77a47.85,47.85,0,0,0,.85,9.94c1.07,5.08,3.38,6.8,8.53,7.21,0,4,.24,8.12-.14,12.13-.12,1.29-1.72,2.65-2.94,3.6a23.24,23.24,0,0,1-26.91,1C614.77,650.63,611.68,647.59,608.28,644.77Zm2-49.08-.33,0c0-6-.06-12.07,0-18.1,0-2.13-.61-3.14-2.89-3.2-8.44-.19-16.8.18-24.93,2.69-10.21,3.17-18.2,8.85-21.3,19.69a41.21,41.21,0,0,0,0,22.33c2,7.43,6.74,12.38,14.48,13.4,11.52,1.52,22-1.35,31-8.92a8.15,8.15,0,0,0,2.46-5C609.43,610.94,609.78,603.31,610.26,595.69Z"/><path d="M258.41,396.62c22.53-2.55,42.48-11,61.67-21.5,38.33-20.89,71.61-48.36,102-79.48,26.16-26.82,49.48-55.88,67.9-88.65,9.27-16.49,17.1-33.61,21.35-52.17.93-4.07,1.52-8.21,3-12.46,1.65,6.6,3.54,13.15,4.88,19.81s2.13,13.62,3.24,20.43c1.19,7.34-1.22,14.1-3.48,20.82-8,23.74-20.55,45.08-35.24,65.18C450.87,313.49,411.5,351.52,364.17,381c-16.8,10.45-34.5,19-53.82,24-5.91,1.51-11.65.57-17.28-.43-10.9-1.95-21.66-4.64-32.48-7A18.42,18.42,0,0,1,258.41,396.62Z"/><path d="M345.08,657.77c-13.56-.07-24.15-1-34.39-4.45-.92-.31-1.82-.65-2.71-1-13.8-6.06-15-10.77-7.45-25.63a3.92,3.92,0,0,1,3.4-1.39,45.7,45.7,0,0,1,8.28,2.6c12,4.94,24.31,7.32,37.24,4.38,16.09-3.67,22.44-21,12.21-34a60.57,60.57,0,0,0-10.12-9.45c-12.06-9.59-24.53-18.69-36.35-28.57-9.77-8.16-15.91-18.76-16.43-31.83-.8-20.13,10.16-35.47,30-41.74,17-5.36,34.08-4.61,50.89.68,4.25,1.34,8.12,4.33,11.72,7.13a6.92,6.92,0,0,1,2.08,5.63,59.43,59.43,0,0,1-3.85,11.56c-.33.81-2.25,1.6-3.22,1.39-8.09-1.75-16.06-4.06-24.19-5.57-6.95-1.29-14-1-20.59,2.12-11.27,5.24-14.29,17.6-6.22,27.07a71.91,71.91,0,0,0,11.29,10.09c10.88,8.32,22.08,16.21,32.87,24.63,8.76,6.83,15.7,15.22,18,26.47,4.81,23.51-4.91,48-34.61,56.58C356.24,656.35,349.21,657,345.08,657.77Z"/><path d="M148.77,155.42c-12.75.08-18.75-4.09-20.6-12.76a11.29,11.29,0,0,1,.29-6C150.59,76,192,34.53,252.36,11.65c7.05-2.67,16.87,2.15,19,9.32,1.94,6.49,1.2,12.8-.49,19.11-3.65,13.62-10.46,25.73-18.55,37.1-20,28.06-44.26,51.46-74.53,68.23C168,150.87,157.6,155.1,148.77,155.42Zm11.09-62.59c.47,5,3.3,7.68,7.92,6.64a38.35,38.35,0,0,0,10.55-3.81,90.28,90.28,0,0,0,34.89-35.47,30.9,30.9,0,0,0,3.21-10.68c.53-4.17-2.05-6.63-6.29-6.1a28.57,28.57,0,0,0-9.76,3,89.63,89.63,0,0,0-37,36.87C161.79,86.2,161,89.62,159.86,92.83Z"/><path d="M510.43,627.79c.66,5.73,1.46,11.86-.38,17.6-.87,2.71-3.73,5.52-6.4,6.78-12.77,6-26.3,7.78-40,4.08-12.47-3.37-18.8-13-22.48-24.71a92.22,92.22,0,0,1-3.94-27.76c-.09-29.24-.06-58.49-.08-87.74v-4.15l-13.76-1.54a2,2,0,0,1-.64-.11c-2.29-1.1-5.94-1.7-6.59-3.43-1.79-4.76.1-9.75,4.11-11.77A72.41,72.41,0,0,1,433,490.4c7.08-2,7.17-1.9,7.65-9.13.46-6.89,1.06-13.78,1.11-20.68,0-6.08,2.82-10.29,7.7-13.31,5.54-3.43,11.72-4.71,18.74-5,0,1.33,0,2.45,0,3.57-.2,12.73-.32,25.47-.69,38.19-.09,3.09,1,3.76,3.84,3.73,12.51-.15,25-.06,37.54-.06h4c-.18,6.76-.11,13.39-3.54,19.17-1,1.73-4,3.08-6.19,3.2-10.55.56-21.12.77-31.68.83-3,0-4.08.74-4.06,3.92.09,29.35-.1,58.7.14,88a71.37,71.37,0,0,0,2.56,16.56c3,12.11,10.37,16.52,22.43,13.62C498.49,631.68,504.28,629.64,510.43,627.79Z"/><path d="M435.55,35.28c8.14,6.85,16.44,13.52,24.37,20.6,4.65,4.15,8.52,9.17,13.1,13.41,8.7,8.06,10.68,18.23,10.25,29.43-.64,16.66-5.79,32.13-12.29,47.23-8,18.58-18.29,35.88-29.72,52.52-.27.4-.63.74-1.37,1.59-.23-3.78-.48-7-.59-10.14-.3-8.84-.67-17.68-.72-26.52,0-2.93-1.05-3.53-3.76-3.59-13.48-.29-26.94-.81-40.41-1.25-.39,0-.78-.08-1.5-.17,4-6.11,7.93-11.87,11.62-17.77,12.33-19.71,23-40.19,29.15-62.76,3.3-12.16,5.12-24.48,2.26-37-.35-1.55-.83-3.07-1.25-4.61Z"/><path d="M419.71,182.29c-.53,33.5-1,66.67-1.58,100.39-1-.88-1.72-1.43-2.34-2.07-5.15-5.36-10.37-10.67-15.36-16.19a7.72,7.72,0,0,1-1.84-4.77q.27-25.24.93-50.47c.09-3.1-.74-4-3.88-4.05-15.84-.31-31.68-1-47.53-1.29a12.23,12.23,0,0,1-9.81-4.33c-5.91-6.68-12.26-13-19.2-20.22Z"/><path d="M225,794.17c3.06,2.63,3.17,5.32.36,8.2s-6.09,5.84-8.69,9.11c-3.16,4-1.83,7,3.17,7,11.88-.08,22.32-3.63,29.32-14a19.56,19.56,0,0,0,2.42-5.25c1.72-5.84-1.53-11.48-7.53-12.37-6.7-1-13.52-1.18-20.25-2.07a39.22,39.22,0,0,1-10.25-2.68,19,19,0,0,1-6.57-5c-2.51-2.92-2.09-5.48.54-8.31l8.33-9c-9.65-7.53-11.2-18.06-8.89-29.48,3-14.74,17.87-23.28,33.26-18.73A38.48,38.48,0,0,0,255,713.17c1.83-.17,3.67-.11,5.5-.23,4.23-.29,4.57-.05,4.82,3.79.28,4.14-1.4,6.58-4.68,6.68-2,.07-4.07,0-6.65,0a27.38,27.38,0,0,1,3.89,15.87c-.69,15.59-10.51,24.82-26.17,24.43a13.82,13.82,0,0,1-3.54-.26c-3.27-.94-5.27.77-7.15,3-2.28,2.75-2,5,1.36,5.9a99.1,99.1,0,0,0,13.33,2.21c4.59.58,9.26.68,13.83,1.4,12.29,2,18.16,11.41,14.22,23.23-4.15,12.45-13.29,20.22-25.22,24.71a54.53,54.53,0,0,1-28.62,3c-8.39-1.42-10.6-6.52-6.13-13.69C207.5,807.25,218.79,797.1,225,794.17Zm20.33-55c-.27-5.14-.89-10.15-3.89-14.49a11.84,11.84,0,0,0-11.48-5.15,9.85,9.85,0,0,0-9,6.82,26.12,26.12,0,0,0,2.6,23.21c2.87,4.61,7.66,5.8,12.77,4.9,4.65-.82,7.14-4.14,8.08-8.61C244.86,743.62,245,741.36,245.31,739.13Z"/><path d="M190.34,681.5c0,1.2,0,2,0,2.88-.2,21.47-.13,43-.74,64.41-.25,8.9-2.06,17.74-2.95,26.63-.42,4.15-2.85,6.53-6.14,8.47-6.52,3.86-13.76,5-21.11,5.23a65.49,65.49,0,0,1-13.2-.74c-12.23-2.06-19.52-9.84-22.17-21.56a117,117,0,0,1-2.77-22.7c-.51-19.41-.39-38.84-.67-58.26,0-2.58,1.11-3.5,3.28-3.77s4.08-.5,6.12-.59c3.93-.17,4.51.21,4.65,4.29.25,7.22.23,14.45.3,21.68.12,13-.19,26.13.53,39.15a77.2,77.2,0,0,0,4.12,20.11c2.61,7.71,8.73,11.63,17,11.21a115.84,115.84,0,0,0,13.09-1.63c2.85-.46,4.35-2.3,4.58-5.32.78-10.32,2.12-20.61,2.43-30.93.44-15.31.17-30.64.23-46a37.08,37.08,0,0,1,.33-5.48c1-6.27,1.71-6.87,8.08-7.11C186.87,681.45,188.37,681.5,190.34,681.5Z"/><path d="M449.85,783.62c-14.16,10.85-34.72,5-40.39-11.82a59.2,59.2,0,0,1,.74-40.59c6.89-18.28,24-24.77,39.33-18.46.16.07.4,0,1.1-.08,0-1.2,0-2.45,0-3.69q-.19-13.59-.39-27.19c-.06-4.11.81-5.3,4.78-6.39,7.26-2,8.63-1.26,8.69,6,.19,21.05.14,42.09.13,63.13,0,9.5-.2,19-.22,28.49,0,3.14.44,6.18,4.29,6.83.34,7.21-5.39,11.1-11.81,8C453.91,786.88,452.05,785.16,449.85,783.62Zm.51-35.44h.23c0-7-.16-14,.07-21,.11-3.13-1.33-4.43-4-5.34-9.25-3.2-18.38.86-22.29,10.65a49.76,49.76,0,0,0-.75,34.82c3.3,10,14.17,13.48,23.31,8.26,2.14-1.22,3.43-2.77,3.41-5.38C450.32,762.84,450.36,755.51,450.36,748.18Z"/><path d="M306.17,783.39c-6.75,6-14.66,6.35-22.95,4.05a16.24,16.24,0,0,1-9.87-7.85c-6.37-11-2.39-26.15,8.64-32.47,6.94-4,14.52-5.19,22.43-4.77l2.46.16c0-4.61.33-9.13-.09-13.58-.49-5.18-3.52-7.48-8.74-6.52s-10.56,2.8-15.86,4.13c-1.72.43-3.67,2.53-5.18-.52-2.09-4.24-2-7.64.63-9.32,6.24-4,13.2-5.66,20.5-6.14,1.61-.11,3.24,0,4.85,0,10.5.18,16.17,5.18,16.82,15.6.5,8.16.39,16.37.4,24.56,0,7.33-.25,14.66-.26,22,0,3.09.44,6.14,5.13,7.18-.84,2.36-1,5.18-2.51,6.51a8.64,8.64,0,0,1-9.68,1.49C310.61,786.77,308.62,785.05,306.17,783.39ZM306.9,752c-3.64-1.19-10.43-.46-14.83,1.58-7,3.23-10.06,12.25-6.62,19.59,2.37,5.08,9,6.26,16.28,2.9.39-.18.77-.39,1.16-.58a6.14,6.14,0,0,0,4-5.75C307,763.83,306.9,757.9,306.9,752Z"/><path d="M514,742.09c0-4.28.33-8.6-.08-12.85-.53-5.49-3.35-7.78-8.78-6.83-5.26.93-10.35,2.74-15.55,4.06-1.83.46-3.9,2.66-5.5-.5-2.18-4.34-2-7.77,1-9.47a43.42,43.42,0,0,1,31.16-5.14c6.43,1.29,10.51,7,10.79,15.14.36,10,.18,20,.19,30.07,0,5.5-.12,11-.08,16.5,0,3,.59,5.88,4.22,6.58.56,6.89-4.63,10.86-11,8.29-2.43-1-4.5-2.82-7.13-4.52-3.77,3.88-9,5.17-14.61,5.24-14.34.19-22.06-9.41-20.83-23.15,1.13-12.61,9.71-20.74,23.19-22.53C505.15,742.42,509.46,742.38,514,742.09Zm-.16,9.49c-5.84-.53-11.43,0-16.55,3a11,11,0,0,0-5.58,8.32c-.6,4.84-1.07,9.91,3.44,13.39,4.1,3.16,14.82,1.17,17.81-3.14a5.13,5.13,0,0,0,.84-2.72C513.83,764.34,513.8,758.21,513.8,751.58Z"/><path d="M338.69,787.46v-3.59c.05-17.81.18-35.61.1-53.42a62.26,62.26,0,0,0-1.28-10.86c-.34-1.82,0-2.88,1.6-3.61.4-.18.76-.41,1.15-.61,5-2.55,6.25-2.18,9.12,2.85.78-.51,1.56-1,2.32-1.52a33,33,0,0,1,26.16-5.36c6.88,1.39,11.38,5.52,13.09,12.34a41.48,41.48,0,0,1,1.34,9.25c.29,16.83.36,33.66.6,50.49,0,2.1-.89,3.06-2.7,3.27a63.55,63.55,0,0,1-8.37.6,3.2,3.2,0,0,1-2.36-1.8,18.07,18.07,0,0,1-.55-5.1c0-13.38,0-26.76,0-40.14a62.38,62.38,0,0,0-.46-7.1c-1.08-8.95-6.56-12.85-15.38-10.85a24,24,0,0,0-5.66,2.27c-3.57,1.87-5.37,4.44-5.26,9,.36,14.77.13,29.56.12,44.34a27.8,27.8,0,0,1-.15,3.88c-.43,3.09-1.84,5.25-5.36,5.31C344.25,787.13,341.78,787.31,338.69,787.46Z"/><path d="M514.41,261.62C496.38,327.38,440,380.79,379,397.28,406.4,380.2,431.2,359.83,454,337S497.28,289.2,514.41,261.62Z"/><path d="M167.69,862.09c-1.52,6-3,11.85-4.45,17.67-2.28,9-4.58,17.93-6.83,26.91-.64,2.57-1.94,4.45-4.79,4.3s-3.62-2.09-4.18-4.54c-2.31-10.26-4.77-20.49-7.7-30.86-.45,2.15-.85,4.31-1.35,6.45-1.93,8.28-3.94,16.55-5.82,24.84-.5,2.25-1.44,3.84-3.94,3.86s-4.15-1.3-4.78-3.88q-4.8-19.77-9.69-39.52c-.18-.73-.4-1.45-.57-2.18-.39-1.71-.54-3.39,1.82-3.62,1.85-.18,3.79-.78,4.44,2.17,2.46,11.25,5.12,22.46,7.71,33.68a9.64,9.64,0,0,0,1.35,3.49c.32-1.47.62-3,1-4.41,2.39-10.28,4.84-20.53,7.15-30.82.46-2.07,1.49-2.77,3.51-3,2.39-.22,2.66,1.43,3,3,2.66,11.32,5.26,22.65,7.88,34a2.39,2.39,0,0,0,1.07,1.59c.66-3.08,1.26-6.16,2-9.21,2.07-8.8,4.21-17.59,6.29-26.39C161.86,860.93,162.19,860.7,167.69,862.09Z"/><path d="M238.48,875.61c0-4.81.13-9.32,0-13.82-.11-2.83,1.4-3.48,3.74-3.66,2.76-.21,2.53,1.73,2.53,3.43,0,13.57-.07,27.15,0,40.73,0,1.65,1.17,3.28,1.36,5a5.21,5.21,0,0,1-.9,3.41,2.73,2.73,0,0,1-2.67.46c-3.34-2.4-6.44-.39-9.7,0-7.43,1-12.34-2.47-14.09-9.67a29.25,29.25,0,0,1,.42-15.64C221.88,877,228,873.76,238.48,875.61Zm.06,16.79v-9a1.82,1.82,0,0,1,0-.33c.25-1.85-.67-2.7-2.38-3.2a7.73,7.73,0,0,0-9.29,4,21.7,21.7,0,0,0-.55,18.45,7,7,0,0,0,2.74,3.05c4.67,2.87,9.45.2,9.48-5.16C238.55,897.58,238.54,895,238.54,892.4Z"/><path d="M347.39,895c-.16,10,3.74,12.19,16.8,10,1.1,2.71-.16,4.27-2.55,5.3-9.95,4.3-19.15-.67-20.28-11.45a43.83,43.83,0,0,1,.88-14c1.72-7.58,8.23-11.23,15.79-9.69,4.4.89,7.28,4.72,7.74,10.3.67,8-.5,9.35-8.61,9.54C354,895,350.75,895,347.39,895Zm-.75-4.35c4.08,0,6.86-.13,9.64,0,2.94.17,3.82-1.31,3.6-3.91-.09-1,.05-2.12-.44-2.84-1.08-1.58-2.3-3.77-3.84-4.15a6.06,6.06,0,0,0-5.23,1.93C348.7,884.07,348,887.16,346.64,890.6Z"/><path d="M258.66,895c-1.25,9.55,3.92,12.57,16.47,10,1.37,2.7-.07,4.19-2.31,5.24-9.35,4.36-19.15-.41-20.4-10.54A45,45,0,0,1,253.54,884c1.73-7.16,8.55-10.75,15.67-8.74,2.17.61,4.06,2.59,5.77,4.26a6.35,6.35,0,0,1,1.39,3.55c1.32,10.39,1.32,11.5-9.46,11.89C264.14,895.07,261.36,895,258.66,895Zm-1.1-4.4c4.18,0,7.18,0,10.17,0,2.38,0,3.37-1.08,3.12-3.38-.15-1.28,0-2.78-.6-3.77-.95-1.52-2.34-3.54-3.79-3.76a6.36,6.36,0,0,0-5.21,2.09C259.61,884.12,258.92,887.14,257.56,890.58Z"/><path d="M194.52,904.83c1.27,3-.26,4.58-2.75,5.56-10.27,4.07-19.19-1-20-11.94a45.19,45.19,0,0,1,1.19-14.34c1.84-7.24,8.38-10.65,15.64-9a8.4,8.4,0,0,1,6.81,6.62,37.68,37.68,0,0,1,.63,9.6c0,1-1.74,2.55-2.85,2.71a115,115,0,0,1-12.86,1c-2.13.05-2.83.54-2.52,2.8.93,6.58,4.89,9.36,12.05,8.13C191.41,905.7,192.94,905.22,194.52,904.83ZM177,890.6c4.15,0,6.93-.11,9.7,0s3.88-1.28,3.63-3.91c-.1-1.07,0-2.33-.56-3.14-1-1.5-2.27-3.59-3.72-3.86a6.25,6.25,0,0,0-5.25,1.91C179.13,884,178.41,887.11,177,890.6Z"/><path d="M482.72,876c0,2,0,4,0,6,.12,8.29.3,16.58.34,24.87,0,.8-.79,2.19-1.38,2.28a16.44,16.44,0,0,1-4.27-.39c-2.81.75-5.94,2.11-9.15,2.32-6.67.45-10.09-2.84-10.3-9.51-.14-4.63.23-9.26.26-13.9a53.68,53.68,0,0,0-.35-9c-.44-2.59,1-3.24,2.76-3.81,2.16-.67,3.14.8,3.34,2.47a84.88,84.88,0,0,1,.59,10c0,4.41-.32,8.82-.31,13.24,0,2.39.92,4.54,3.49,5.25a7.94,7.94,0,0,0,8.08-1.92c.68-.69.74-2.19.75-3.32.06-6.68,0-13.36,0-20C476.63,875.67,477.32,875.15,482.72,876Z"/><path d="M501.77,874.54a40.3,40.3,0,0,1,6.45,1.75c.78.35,1,2,1.47,3-1,.4-2.05,1.16-3.07,1.14-1.58,0-3.28-1.12-4.69-.78-1.78.44-3.92,1.54-4.73,3-.51.91.72,3.44,1.86,4.52,2.57,2.42,5.8,4.17,8.32,6.64a12,12,0,0,1,3.41,5.94c1,5.32-1.62,9.64-6.94,10.69-3.76.74-7.84.17-11.73-.24-1.8-.2-3-1.64-2.21-3.86s2.26-1.13,3.65-.83c1.88.41,3.92,1.24,5.65.83s4.34-1.82,4.81-3.33-.79-4.11-2.1-5.45c-2.46-2.53-5.7-4.28-8.22-6.77a11.72,11.72,0,0,1-3.26-5.71c-1-5.11,2.3-9.14,7.69-10,1.17-.19,2.36-.17,3.55-.25Z"/><path d="M336.75,876.13a23.48,23.48,0,0,1-.54,3.34c-2.8,9.27-5.75,18.5-8.44,27.81-.69,2.39-2,3.51-4.27,3.6-2.46.1-3.06-1.73-3.67-3.74-2.72-9.07-5.58-18.1-8.35-27.16-.47-1.52-1.77-3.34.89-4.26,3-1,4.49-.34,5.31,2.68,1.85,6.86,3.57,13.75,5.35,20.63.26,1,.55,2.06,1.08,4.06.71-2.29,1.21-3.7,1.58-5.13,1.59-6.15,3.12-12.32,4.71-18.46C331.52,875.15,331.66,875.09,336.75,876.13Z"/><path d="M519.43,881.63l-4.45-2.8c1.23-.86,2.71-1.52,3.6-2.64a8,8,0,0,0,1.58-4c.46-4.66.89-5.26,5.52-5.77v9.25h9.15c.18,4.15.18,4.15-8.89,5.15,0,7.26-.26,14.55.11,21.81.18,3.61,2.34,4.55,6,3.59l2.44-.64c.56,3.79-.16,4.89-3.53,5.58-7.21,1.47-11.09-1.65-11.41-9.53-.23-5.7-.08-11.41-.09-17.12C519.43,883.3,519.43,882.12,519.43,881.63Z"/><path d="M420.33,881c0,7.37-.2,14.87.11,22.34.11,2.5,2.17,3.89,5,3.06,1-.3,2-.55,3.05-.81.9,3.33.26,4.58-2.66,5.4-7,2-11.54-1.09-11.89-8.42-.28-5.91-.13-11.84-.17-17.77,0-1.27,0-2.55,0-3.58-.44-.29-.53-.37-.62-.41l-3.81-1.76c1.13-.92,2.12-2.18,3.41-2.69,2.48-1,1.68-3,1.78-4.68.25-4.11,1-4.91,5.44-5.24v9.25h9.34C429.26,883.35,423.05,879,420.33,881Z"/><path d="M289.24,858.49c.08,1.62.24,3.32.24,5,0,12.83,0,25.66.09,38.5a12.79,12.79,0,0,0,1.43,5c1,2.06.44,3.57-1.83,4.07-3,.66-5.34-1-5.59-4.13-.19-2.47-.1-5-.11-7.44-.06-12.18-.06-24.37-.17-36.55C283.26,858.48,284.08,857.73,289.24,858.49Z"/><path d="M372.53,910.18c0-3.9.07-7.86,0-11.82-.12-6.45-.38-12.89-.44-19.34a2.6,2.6,0,0,1,1.48-2c1.34-.19,2.76.17,4.93.39a55.89,55.89,0,0,1,7.24-2.27c1.72-.33,3.93,0,3.8,2.67-.1,2.29-1.14,3.3-3.77,3.06-5.31-.49-7,1.24-7,6.44q0,9,0,18.1C378.75,910.53,378.07,911.08,372.53,910.18Z"/><path d="M440.19,877.71a82.47,82.47,0,0,1,9-2.55c1.66-.28,3.6.28,3.33,2.81-.23,2.14-1.14,3.11-3.6,2.91-5.68-.46-7.29,1.22-7.29,6.9s0,11.65,0,17.47c0,5.34-.37,5.67-6.24,5,0-1.08,0-2.21,0-3.34-.1-9.26-.22-18.53-.26-27.79a2.5,2.5,0,0,1,1-1.95,5.39,5.39,0,0,1,3-.43C439.69,876.87,440.18,877.7,440.19,877.71Z"/><path d="M304.29,876a36.41,36.41,0,0,1,.45,4q.06,12.62,0,25.25c0,5-.63,5.55-6.06,5.11-.07-1-.21-2-.22-3q-.07-14.25-.1-28.49C298.36,876,299.52,875.36,304.29,876Z"/><path d="M305.08,862.1c0,3.37-1.26,4.92-3.75,4.79s-3.27-1.75-3.27-3.95c0-2.49.94-4.11,3.75-4.19C304.42,858.68,305.25,860,305.08,862.1Z"/><path class="cls-1" d="M159.86,92.83c1.16-3.21,1.93-6.63,3.54-9.59a89.63,89.63,0,0,1,37-36.87,28.57,28.57,0,0,1,9.76-3c4.24-.53,6.82,1.93,6.29,6.1a30.9,30.9,0,0,1-3.21,10.68,90.28,90.28,0,0,1-34.89,35.47,38.35,38.35,0,0,1-10.55,3.81C163.16,100.51,160.33,97.79,159.86,92.83Z"/><path class="cls-1" d="M450.36,748.18c0,7.33,0,14.66,0,22,0,2.61-1.27,4.16-3.41,5.38-9.14,5.22-20,1.69-23.31-8.26a49.76,49.76,0,0,1,.75-34.82c3.91-9.79,13-13.85,22.29-10.65,2.62.91,4.06,2.21,4,5.34-.23,7-.07,14-.07,21Z"/></g></g></svg>